<svg xmlns="http://www.w3.org/2000/svg" width="154" height="36" viewBox="0 0 154 36">
    <g fill="none" fill-rule="evenodd">
        <path fill="#33393D" d="M45.962 24.379a9.018 9.018 0 0 1-1.858.65c-.68.161-1.51.242-2.49.242-.845 0-1.617-.139-2.318-.415a5.024 5.024 0 0 1-1.796-1.187 5.308 5.308 0 0 1-1.154-1.875c-.272-.738-.408-1.566-.408-2.485a9.23 9.23 0 0 1 .562-3.144 8.469 8.469 0 0 1 1.654-2.79 8.538 8.538 0 0 1 2.673-1.997c1.055-.514 2.27-.77 3.644-.77.654 0 1.297.074 1.93.223.632.148 1.296.412 1.99.791l-1.143 2.454c-.572-.298-1.082-.5-1.531-.608a6.148 6.148 0 0 0-1.45-.163c-.775 0-1.473.155-2.092.466a4.909 4.909 0 0 0-1.592 1.268 5.64 5.64 0 0 0-1.011 1.856 7.078 7.078 0 0 0-.347 2.23c0 1.191.262 2.056.786 2.597.523.541 1.276.811 2.256.811.653 0 1.255-.067 1.806-.203a8.729 8.729 0 0 0 1.542-.527l.347 2.576M55.414 16.651a5.651 5.651 0 0 0-1-.081c-.463 0-.895.116-1.296.346a3.68 3.68 0 0 0-1.052.902 4.28 4.28 0 0 0-.704 1.287c-.17.487-.255.994-.255 1.521 0 .65.109 1.164.327 1.543.217.378.618.567 1.204.567.312 0 .595-.06.847-.182.251-.121.52-.325.806-.609.027-.337.072-.692.133-1.064.062-.372.126-.713.194-1.025l.796-3.205zm2.124 3.733a6.685 6.685 0 0 0-.164 2.322c.082.777.238 1.47.47 2.079l-2.716.385a13.273 13.273 0 0 1-.224-.467 6.161 6.161 0 0 1-.205-.506 5.475 5.475 0 0 1-1.265.77c-.463.203-.98.304-1.552.304-.68 0-1.262-.117-1.745-.355a3.287 3.287 0 0 1-1.185-.953 3.815 3.815 0 0 1-.662-1.4 6.896 6.896 0 0 1-.205-1.713c0-.933.167-1.812.5-2.636a6.705 6.705 0 0 1 1.389-2.161 6.436 6.436 0 0 1 4.705-1.977 14.67 14.67 0 0 1 1.695.111c.395.048.81.125 1.245.234.435.108.85.257 1.245.446l-1.326 5.517zM62.396 11.662l3.164-.487-.775 3.144h3.389l-.613 2.475h-3.369l-.897 3.731a4.93 4.93 0 0 0-.154.873c-.02.27.013.503.102.7.089.196.241.348.46.456.218.108.517.162.898.162.327 0 .643-.03.95-.091.306-.061.615-.145.928-.254l.225 2.312c-.409.15-.85.278-1.327.386-.477.108-1.042.163-1.695.163-.94 0-1.667-.14-2.184-.417-.518-.277-.885-.655-1.103-1.135-.217-.48-.313-1.032-.285-1.653.026-.622.122-1.278.285-1.968l2.001-8.397M68.275 20.729c0-.92.15-1.785.449-2.597.3-.81.728-1.521 1.286-2.13a6.018 6.018 0 0 1 2.032-1.44c.796-.351 1.684-.527 2.664-.527.612 0 1.16.057 1.643.172a6.59 6.59 0 0 1 1.317.457l-1.041 2.353a10.484 10.484 0 0 0-.847-.294 3.774 3.774 0 0 0-1.072-.132c-1.02 0-1.824.342-2.409 1.024-.586.683-.878 1.613-.878 2.789 0 .689.15 1.247.45 1.673.298.426.85.639 1.652.639a5.581 5.581 0 0 0 2.124-.426l.225 2.413c-.382.15-.8.281-1.256.396-.456.115-1.01.172-1.663.172-.845 0-1.56-.121-2.144-.365-.586-.243-1.07-.57-1.45-.983a3.702 3.702 0 0 1-.826-1.45 5.89 5.89 0 0 1-.256-1.744M84.71 14.137c.584 0 1.088.084 1.51.253.42.17.768.406 1.04.71.272.304.477.666.614 1.085.135.42.203.872.203 1.359 0 .568-.068 1.129-.203 1.684l-1.39 5.76h-3.04l1.347-5.639c.054-.23.105-.473.153-.73.047-.257.072-.5.072-.73 0-.352-.093-.652-.276-.903-.183-.25-.534-.375-1.052-.375-.218 0-.425.014-.622.04-.198.027-.392.061-.582.102l-1.98 8.235h-3.042l3.674-15.253 3.165-.486-1.246 5.09c.273-.054.548-.101.827-.142.279-.04.555-.06.827-.06M94.242 16.468h2.001c.817 0 1.425-.174 1.827-.527.402-.35.602-.77.602-1.257 0-.256-.058-.477-.173-.659a1.296 1.296 0 0 0-.46-.436 2.142 2.142 0 0 0-.653-.233 3.977 3.977 0 0 0-.756-.071c-.285 0-.591.01-.918.03-.326.02-.571.044-.735.071l-.735 3.082zm-.592 2.374l-.877 3.651c.217.04.492.07.827.091.332.02.642.03.928.03.408 0 .813-.03 1.215-.09.401-.062.761-.173 1.081-.335.32-.162.583-.386.787-.67.205-.284.306-.649.306-1.095 0-.189-.038-.378-.112-.568a1.367 1.367 0 0 0-.358-.507 1.882 1.882 0 0 0-.642-.365 2.84 2.84 0 0 0-.95-.142H93.65zm.286 6.328c-.817 0-1.654-.034-2.51-.101a17.873 17.873 0 0 1-2.328-.325l3.267-13.59c.775-.148 1.588-.249 2.439-.303.85-.054 1.63-.082 2.338-.082.816 0 1.52.085 2.113.255.591.168 1.074.395 1.449.678a2.73 2.73 0 0 1 1.112 2.232c0 .297-.03.609-.091.933a3.053 3.053 0 0 1-.368.963 3.67 3.67 0 0 1-.755.903c-.32.284-.739.541-1.256.77.612.271 1.061.64 1.347 1.106.286.466.43.983.43 1.551 0 .65-.13 1.275-.388 1.877-.26.602-.674 1.135-1.246 1.602-.572.467-1.314.839-2.225 1.116-.912.276-2.022.415-3.328.415zM106.92 13.02a1.88 1.88 0 0 1-1.144-.374c-.34-.25-.51-.632-.51-1.146 0-.284.058-.55.173-.801a2.125 2.125 0 0 1 1.123-1.085c.252-.109.52-.163.807-.163.421 0 .802.126 1.143.375.34.251.51.633.51 1.146 0 .285-.058.552-.173.802a2.13 2.13 0 0 1-1.123 1.085c-.252.108-.52.162-.806.162zm-1.47 11.968h-3.022l2.552-10.669h3.042l-2.572 10.669zM111.125 11.662l3.165-.487-.777 3.144h3.39l-.613 2.475h-3.369l-.897 3.731a4.858 4.858 0 0 0-.154.873c-.02.27.013.503.102.7.09.196.242.348.46.456.217.108.516.162.898.162.327 0 .644-.03.95-.091.305-.061.615-.145.929-.254l.224 2.312c-.409.15-.851.278-1.327.386-.477.108-1.041.163-1.695.163-.94 0-1.668-.14-2.184-.417-.518-.277-.885-.655-1.102-1.135-.218-.48-.313-1.032-.286-1.653.027-.622.122-1.278.286-1.968l2-8.397M117.005 20.729c0-.92.15-1.785.449-2.597.3-.81.728-1.521 1.286-2.13a6.026 6.026 0 0 1 2.031-1.44c.796-.351 1.685-.527 2.665-.527.613 0 1.16.057 1.644.172.482.116.92.268 1.316.457l-1.042 2.353a10.285 10.285 0 0 0-.847-.294 3.774 3.774 0 0 0-1.071-.132c-1.021 0-1.824.342-2.409 1.024-.585.683-.878 1.613-.878 2.789 0 .689.15 1.247.449 1.673.3.426.85.639 1.654.639a5.581 5.581 0 0 0 2.123-.426l.225 2.413c-.382.15-.8.281-1.256.396-.457.115-1.01.172-1.664.172-.844 0-1.558-.121-2.144-.365a4.059 4.059 0 0 1-1.449-.983 3.713 3.713 0 0 1-.827-1.45 5.915 5.915 0 0 1-.255-1.744M132.05 16.59c-.449 0-.843.129-1.183.386-.34.258-.626.582-.858.974a4.766 4.766 0 0 0-.52 1.288c-.116.466-.174.91-.174 1.328 0 .69.11 1.22.327 1.592.218.372.613.558 1.184.558.45 0 .843-.128 1.184-.386.34-.256.626-.58.857-.973.232-.392.405-.821.521-1.288.116-.466.174-.91.174-1.328 0-.69-.109-1.22-.327-1.592-.218-.372-.612-.558-1.185-.558zm-1.51 8.681c-.722 0-1.347-.108-1.878-.324-.53-.216-.97-.52-1.317-.912a3.937 3.937 0 0 1-.786-1.39 5.605 5.605 0 0 1-.265-1.775c0-.81.132-1.622.397-2.434a6.965 6.965 0 0 1 1.175-2.19 6.252 6.252 0 0 1 1.899-1.592c.748-.412 1.605-.62 2.572-.62.708 0 1.33.11 1.868.325.537.217.98.521 1.326.913.348.393.61.855.786 1.39.178.534.266 1.125.266 1.774 0 .812-.13 1.623-.388 2.434a7.013 7.013 0 0 1-1.143 2.191 5.997 5.997 0 0 1-1.888 1.592c-.756.412-1.63.618-2.624.618zM141.89 13.02c-.421 0-.803-.124-1.142-.374-.342-.25-.51-.632-.51-1.146 0-.284.057-.55.172-.801a2.138 2.138 0 0 1 1.93-1.248c.422 0 .802.126 1.143.375.34.251.51.633.51 1.146 0 .285-.058.552-.173.802a2.128 2.128 0 0 1-1.122 1.085 2.017 2.017 0 0 1-.807.162zm-1.47 11.968H137.4l2.552-10.669h3.042l-2.572 10.669zM145.647 14.806c.231-.068.486-.145.765-.233.28-.088.593-.17.94-.244.347-.074.734-.135 1.164-.183.428-.047.915-.07 1.459-.07 1.606 0 2.708.46 3.307 1.378.599.92.701 2.178.307 3.774l-1.389 5.76h-3.042l1.348-5.639c.082-.352.146-.693.194-1.024.048-.331.044-.622-.01-.872a1.038 1.038 0 0 0-.378-.609c-.197-.155-.501-.233-.909-.233-.394 0-.795.04-1.204.122l-1.98 8.255h-3.043l2.471-10.182"/>
        <path fill="#FF9400" d="M27.917 10.358v-.007s.097.14.244.05l2.252-1.395c.12-.074.092-.181.067-.24a16.746 16.746 0 0 0-3.813-3.939c.31-.583.613-1.17.918-1.756.108-.208.107-.208-.107-.319l-1.46-.75c-.235-.121-.236-.121-.354.106l-.806 1.549a16.873 16.873 0 0 0-1.18-.6c.28-.53.554-1.064.836-1.594.073-.136.066-.207-.084-.281a58.744 58.744 0 0 1-1.546-.793c-.142-.077-.211-.055-.284.086-.304.6-.618 1.195-.929 1.792l-.014.024a16.71 16.71 0 0 0-4.928-.745C7.538 1.546.06 8.976.06 18.108c0 5.389 2.607 10.183 6.63 13.209-.306.574-.603 1.151-.903 1.728-.108.207-.107.208.107.318l1.46.75c.235.12.236.12.354-.106l.786-1.51c.383.217.774.421 1.175.608-.271.515-.537 1.034-.811 1.548-.073.136-.065.206.084.28.52.257 1.035.523 1.546.795.142.075.211.054.283-.089.298-.586.605-1.167.91-1.75 1.593.505 3.289.78 5.05.78a16.694 16.694 0 0 0 13.721-7.172.087.087 0 0 0-.018-.117l-2.26-1.576a.01.01 0 0 0-.005 0c-.09-.059-.154-.051-.226.027l-.007.001a13.665 13.665 0 0 1-11.206 5.834c-7.524 0-13.647-6.082-13.647-13.558 0-7.477 6.123-13.56 13.647-13.56 4.626 0 8.718 2.303 11.188 5.81zm-7.22 6.366c-.478.653-1.21.85-2.067.585a9.655 9.655 0 0 1-1.68-.72 26.456 26.456 0 0 0-1.008-.515c-.143-.069-.171-.136-.094-.279.256-.47.497-.947.744-1.421.247-.474.497-.946.738-1.423.068-.135.134-.16.27-.088.616.325 1.242.63 1.852.964.437.239.87.493 1.207.87.542.604.502 1.398.039 2.027zm-4.76 6.474c-.464-.098-.892-.285-1.312-.489-.505-.246-1.012-.492-1.49-.792-.197-.123-.25-.24-.188-.467.066-.237.198-.444.307-.662.186-.373.384-.742.577-1.113l-.005-.003c.279-.534.559-1.069.834-1.606.042-.082.089-.094.164-.054.633.337 1.284.64 1.905.998.3.172.605.334.88.545.461.357.836.784.893 1.388.121 1.294-1.085 2.568-2.565 2.255zm7.297-4.257c.896-.593 1.397-1.431 1.49-2.499a3.073 3.073 0 0 0-.19-1.386c-.36-.931-.997-1.635-1.82-2.185-.125-.084-.152-.16-.078-.298.333-.621.653-1.247.979-1.873.108-.207.107-.207-.107-.318l-1.46-.75c-.236-.121-.236-.121-.354.106l-.917 1.761c-.096.184-.096.184-.287.086-.27-.138-.536-.283-.809-.412-.137-.065-.162-.129-.089-.266.322-.602.63-1.212.952-1.815.072-.136.066-.207-.085-.28a56.521 56.521 0 0 1-1.545-.794c-.142-.076-.211-.055-.284.087-.304.6-.618 1.194-.93 1.79-.104.202-.105.202-.308.098-1.196-.614-2.392-1.228-3.586-1.845-.125-.065-.197-.06-.265.074a100.68 100.68 0 0 1-.807 1.55c-.063.12-.043.187.082.248.278.135.55.277.81.446.312.203.423.529.274.864-.094.213-.192.425-.299.631-1.228 2.363-2.459 4.725-3.688 7.088-.115.22-.231.44-.367.65-.224.35-.504.435-.89.277-.271-.11-.53-.245-.79-.377-.182-.092-.198-.088-.293.092-.258.493-.515.986-.77 1.48-.105.2-.103.204.1.309l3.574 1.837c.186.096.186.096.088.285L9.54 25.576l1.9.976.998-1.896c.154-.292.106-.275.404-.123.242.122.479.255.724.368.145.067.172.13.094.276-.32.597-.629 1.2-.941 1.801-.032.061-.059.124-.088.186l1.9.977c.365-.7.734-1.397 1.092-2.1.075-.146.15-.165.302-.11.94.34 1.909.494 2.9.29 1.441-.297 2.472-1.099 2.982-2.505.26-.716.269-1.44.052-2.163-.17-.567-.49-1.054-.9-1.48-.185-.192-.376-.378-.565-.567.237-.013.462.015.687.018.775.011 1.504-.153 2.153-.583z"/>
    </g>
</svg>
