<svg xmlns="http://www.w3.org/2000/svg" width="32" height="21" viewBox="0 0 32 21">
  <g fill="none">
    <path fill="#FF4B55" d="M29.603.017H2.397A2.397 2.397 0 0 0 0 2.414v16.172a2.397 2.397 0 0 0 2.397 2.397h27.206A2.397 2.397 0 0 0 32 18.586V2.414A2.397 2.397 0 0 0 29.603.017z"/>
    <path fill="#FFE15A" d="M5.313 3.296l.526 1.577 1.662.013a.224.224 0 0 1 .132.404l-1.338.987.502 1.586a.224.224 0 0 1-.344.25L5.1 7.145l-1.352.966a.224.224 0 0 1-.344-.25l.502-1.585-1.338-.987a.224.224 0 0 1 .131-.404l1.663-.013.526-1.577a.224.224 0 0 1 .425 0zM11.35 3.684l.377.515.609-.19a.086.086 0 0 1 .095.131l-.372.518.369.52a.086.086 0 0 1-.097.132l-.607-.195-.38.512a.086.086 0 0 1-.155-.05l-.003-.639-.605-.204a.086.086 0 0 1 0-.163l.607-.2.007-.637c0-.082.106-.116.155-.05zM9.054 2.151l.634.07.27-.579a.086.086 0 0 1 .162.02l.13.624.633.078c.082.01.104.12.032.16l-.553.317.12.626a.086.086 0 0 1-.142.08l-.472-.428-.558.308a.086.086 0 0 1-.12-.11l.261-.582-.465-.436a.086.086 0 0 1 .068-.148zM10.056 8.332l-.377.514-.609-.19a.086.086 0 0 0-.095.132l.372.518-.369.52a.086.086 0 0 0 .096.131l.608-.194.38.512c.05.066.155.031.155-.051l.003-.638.604-.204a.086.086 0 0 0 0-.163l-.606-.2-.007-.637a.086.086 0 0 0-.155-.05zM12.352 6.891l-.634.07-.27-.578a.086.086 0 0 0-.162.019l-.13.624-.634.079a.086.086 0 0 0-.032.16l.554.316-.12.626a.086.086 0 0 0 .141.08l.473-.428.558.308a.086.086 0 0 0 .12-.11l-.262-.582.466-.436a.086.086 0 0 0-.068-.148z"/>
  </g>
</svg>
