<svg xmlns="http://www.w3.org/2000/svg" viewBox="0 0 32 21">
  <g fill="none">
    <path fill="#F5F5F5" d="M29.603.017H2.397A2.397 2.397 0 0 0 0 2.414v16.172a2.397 2.397 0 0 0 2.397 2.397h27.206A2.397 2.397 0 0 0 32 18.586V2.414A2.397 2.397 0 0 0 29.603.017z"/>
    <path fill="#FF4B55" d="M.132 1.63h31.736A2.397 2.397 0 0 0 29.603.017H2.397C1.347.017.457.691.132 1.63zM0 6.468h32v1.613H0zM0 3.243h32v1.613H0zM0 10.755c0 .304.247.551.552.551H32V9.694H0v1.06zM0 16.145h32v1.613H0zM31.868 19.37H.132a2.397 2.397 0 0 0 2.265 1.613h27.206c1.05 0 1.94-.674 2.265-1.613zM0 12.919h32v1.613H0z"/>
    <path fill="#41479B" d="M.552 11.306h13.793a.552.552 0 0 0 .552-.551V.569a.552.552 0 0 0-.552-.552H2.397A2.397 2.397 0 0 0 0 2.414v8.34c0 .305.247.552.552.552z"/>
    <path fill="#F5F5F5" d="M1.55 1.284l.121.366.387.003c.05 0 .07.064.03.094l-.31.229.116.368a.052.052 0 0 1-.08.058L1.5 2.178l-.314.224a.052.052 0 0 1-.08-.058l.117-.368-.311-.23a.052.052 0 0 1 .03-.093l.387-.003.122-.366a.052.052 0 0 1 .098 0zM1.55 3.2l.121.366.387.003c.05 0 .07.064.03.094l-.31.229.116.368a.052.052 0 0 1-.08.058L1.5 4.093l-.314.225a.052.052 0 0 1-.08-.058l.117-.368-.311-.23a.052.052 0 0 1 .03-.093l.387-.003.122-.367a.052.052 0 0 1 .098 0zM1.55 5.115l.121.367.387.003c.05 0 .07.064.03.093l-.31.23.116.368a.052.052 0 0 1-.08.058L1.5 6.009l-.314.225a.052.052 0 0 1-.08-.058l.117-.368-.311-.23a.052.052 0 0 1 .03-.093l.387-.003.122-.367a.052.052 0 0 1 .098 0zM1.55 7.031l.121.367.387.002c.05 0 .07.065.03.094l-.31.23.116.368a.052.052 0 0 1-.08.058L1.5 7.925l-.314.225a.052.052 0 0 1-.08-.058l.117-.368-.311-.23a.052.052 0 0 1 .03-.093l.387-.003.122-.367a.052.052 0 0 1 .098 0zM1.55 8.947l.121.366.387.003c.05 0 .07.064.03.094l-.31.23.116.368a.052.052 0 0 1-.08.058L1.5 9.84l-.314.225a.052.052 0 0 1-.08-.058l.117-.368-.311-.23a.052.052 0 0 1 .03-.094l.387-.003.122-.366a.052.052 0 0 1 .098 0zM3.036 2.223l.123.366.386.003c.05 0 .07.064.03.094l-.31.23.116.367a.052.052 0 0 1-.08.058l-.314-.224-.314.224a.052.052 0 0 1-.08-.058l.117-.368-.31-.23a.052.052 0 0 1 .03-.093l.386-.003.122-.366a.052.052 0 0 1 .098 0zM3.036 4.139l.123.366.386.003c.05 0 .07.064.03.094l-.31.23.116.367a.052.052 0 0 1-.08.058l-.314-.224-.314.224a.052.052 0 0 1-.08-.058l.117-.368-.31-.23a.052.052 0 0 1 .03-.093l.386-.003.122-.366a.052.052 0 0 1 .098 0zM3.036 6.055l.123.366.386.003c.05 0 .07.064.03.094l-.31.23.116.367a.052.052 0 0 1-.08.058l-.314-.224-.314.224a.052.052 0 0 1-.08-.058l.117-.368-.31-.23a.052.052 0 0 1 .03-.093l.386-.003.122-.366a.052.052 0 0 1 .098 0zM3.036 7.97l.123.367.386.003c.05 0 .07.064.03.094l-.31.229.116.368a.052.052 0 0 1-.08.058l-.314-.224-.314.224a.052.052 0 0 1-.08-.058l.117-.368-.31-.23a.052.052 0 0 1 .03-.093l.386-.003.122-.366a.052.052 0 0 1 .098 0zM4.523 1.284l.123.366.386.003c.05 0 .07.064.03.094l-.31.229.116.368a.052.052 0 0 1-.08.058l-.314-.225-.314.225a.052.052 0 0 1-.08-.058l.117-.368-.31-.23a.052.052 0 0 1 .03-.093l.386-.003.122-.366a.052.052 0 0 1 .098 0zM4.523 3.2l.123.366.386.003c.05 0 .07.064.03.094l-.31.229.116.368a.052.052 0 0 1-.08.058l-.314-.225-.314.225a.052.052 0 0 1-.08-.058l.117-.368-.31-.23a.052.052 0 0 1 .03-.093l.386-.003.122-.367a.052.052 0 0 1 .098 0zM4.523 5.115l.123.367.386.003c.05 0 .07.064.03.093l-.31.23.116.368a.052.052 0 0 1-.08.058l-.314-.225-.314.225a.052.052 0 0 1-.08-.058l.117-.368-.31-.23a.052.052 0 0 1 .03-.093l.386-.003.122-.367a.052.052 0 0 1 .098 0zM4.523 7.031l.123.367.386.002c.05 0 .07.065.03.094l-.31.23.116.368a.052.052 0 0 1-.08.058l-.314-.225-.314.225a.052.052 0 0 1-.08-.058l.117-.368-.31-.23a.052.052 0 0 1 .03-.094l.386-.002.122-.367a.052.052 0 0 1 .098 0zM4.523 8.947l.123.366.386.003c.05 0 .07.064.03.094l-.31.23.116.368a.052.052 0 0 1-.08.058l-.314-.225-.314.225a.052.052 0 0 1-.08-.058l.117-.368-.31-.23a.052.052 0 0 1 .03-.094l.386-.003.122-.366a.052.052 0 0 1 .098 0zM6.01 2.223l.123.366.386.003c.05 0 .07.064.03.094l-.31.23.116.367a.052.052 0 0 1-.08.058l-.314-.224-.314.224a.052.052 0 0 1-.08-.058l.117-.368-.31-.23a.052.052 0 0 1 .03-.093l.386-.003.122-.366a.052.052 0 0 1 .099 0zM6.01 4.139l.123.366.386.003c.05 0 .07.064.03.094l-.31.23.116.367a.052.052 0 0 1-.08.058l-.314-.224-.314.224a.052.052 0 0 1-.08-.058l.117-.368-.31-.23a.052.052 0 0 1 .03-.093l.386-.003.122-.366a.052.052 0 0 1 .099 0zM6.01 6.055l.123.366.386.003c.05 0 .07.064.03.094l-.31.23.116.367a.052.052 0 0 1-.08.058l-.314-.224-.314.224a.052.052 0 0 1-.08-.058l.117-.368-.31-.23a.052.052 0 0 1 .03-.093l.386-.003.122-.366a.052.052 0 0 1 .099 0zM6.01 7.97l.123.367.386.003c.05 0 .07.064.03.094l-.31.229.116.368a.052.052 0 0 1-.08.058l-.314-.224-.314.224a.052.052 0 0 1-.08-.058l.117-.368-.31-.23a.052.052 0 0 1 .03-.093l.386-.003.122-.366a.052.052 0 0 1 .099 0zM7.498 1.284l.122.366.386.003c.05 0 .07.064.03.094l-.31.229.116.368a.052.052 0 0 1-.08.058l-.314-.224-.314.224a.052.052 0 0 1-.08-.058l.117-.368-.31-.23a.052.052 0 0 1 .03-.093l.386-.003.122-.366a.052.052 0 0 1 .099 0zM7.498 3.2l.122.366.386.003c.05 0 .07.064.03.094l-.31.229.116.368a.052.052 0 0 1-.08.058l-.314-.225-.314.225a.052.052 0 0 1-.08-.058l.117-.368-.31-.23a.052.052 0 0 1 .03-.093l.386-.003.122-.367a.052.052 0 0 1 .099 0zM7.498 5.115l.122.367.386.003c.05 0 .07.064.03.093l-.31.23.116.368a.052.052 0 0 1-.08.058l-.314-.225-.314.225a.052.052 0 0 1-.08-.058l.117-.368-.31-.23a.052.052 0 0 1 .03-.093l.386-.003.122-.367a.052.052 0 0 1 .099 0zM7.498 7.031l.122.367.386.002c.05 0 .07.065.03.094l-.31.23.116.368a.052.052 0 0 1-.08.058l-.314-.225-.314.225a.052.052 0 0 1-.08-.058l.117-.368-.31-.23a.052.052 0 0 1 .03-.094l.386-.002.122-.367a.052.052 0 0 1 .099 0zM7.498 8.947l.122.366.386.003c.05 0 .07.064.03.094l-.31.23.116.368a.052.052 0 0 1-.08.058l-.314-.225-.314.225a.052.052 0 0 1-.08-.058l.117-.368-.31-.23a.052.052 0 0 1 .03-.094l.386-.003.122-.366a.052.052 0 0 1 .099 0zM8.985 2.223l.122.366.386.003c.05 0 .07.064.03.094l-.31.23.116.367a.052.052 0 0 1-.08.058l-.314-.224-.314.224a.052.052 0 0 1-.08-.058l.117-.368-.31-.23a.052.052 0 0 1 .03-.093l.386-.003.122-.366a.052.052 0 0 1 .099 0zM8.985 4.139l.122.366.386.003c.05 0 .07.064.03.094l-.31.23.116.367a.052.052 0 0 1-.08.058l-.314-.224-.314.224a.052.052 0 0 1-.08-.058l.117-.368-.31-.23a.052.052 0 0 1 .03-.093l.386-.003.122-.366a.052.052 0 0 1 .099 0zM8.985 6.055l.122.366.386.003c.05 0 .07.064.03.094l-.31.23.116.367a.052.052 0 0 1-.08.058l-.314-.224-.314.224a.052.052 0 0 1-.08-.058l.117-.368-.31-.23a.052.052 0 0 1 .03-.093l.386-.003.122-.366a.052.052 0 0 1 .099 0zM8.985 7.97l.122.367.386.003c.05 0 .07.064.03.094l-.31.229.116.368a.052.052 0 0 1-.08.058l-.314-.224-.314.224a.052.052 0 0 1-.08-.058l.117-.368-.31-.23a.052.052 0 0 1 .03-.093l.386-.003.122-.366a.052.052 0 0 1 .099 0zM10.472 1.284l.122.366.386.003c.05 0 .07.064.03.094l-.31.229.116.368a.052.052 0 0 1-.08.058l-.314-.225-.314.225a.052.052 0 0 1-.08-.058l.117-.368-.31-.23a.052.052 0 0 1 .03-.093l.386-.003.122-.366a.052.052 0 0 1 .099 0zM10.472 3.2l.122.366.386.003c.05 0 .07.064.03.094l-.31.229.116.368a.052.052 0 0 1-.08.058l-.314-.225-.314.225a.052.052 0 0 1-.08-.058l.117-.368-.31-.23a.052.052 0 0 1 .03-.093l.386-.003.122-.367a.052.052 0 0 1 .099 0zM10.472 5.115l.122.367.386.003c.05 0 .07.064.03.093l-.31.23.116.368a.052.052 0 0 1-.08.058l-.314-.225-.314.225a.052.052 0 0 1-.08-.058l.117-.368-.31-.23a.052.052 0 0 1 .03-.093l.386-.003.122-.367a.052.052 0 0 1 .099 0zM10.472 7.031l.122.367.386.002c.05 0 .07.065.03.094l-.31.23.116.368a.052.052 0 0 1-.08.058l-.314-.225-.314.225a.052.052 0 0 1-.08-.058l.117-.368-.31-.23a.052.052 0 0 1 .03-.094l.386-.002.122-.367a.052.052 0 0 1 .099 0zM10.472 8.947l.122.366.386.003c.05 0 .07.064.03.094l-.31.23.116.368a.052.052 0 0 1-.08.058l-.314-.225-.314.225a.052.052 0 0 1-.08-.058l.117-.368-.31-.23a.052.052 0 0 1 .03-.094l.386-.003.122-.366a.052.052 0 0 1 .099 0zM11.959 2.223l.122.366.386.003c.05 0 .07.064.03.094l-.31.23.117.367a.052.052 0 0 1-.08.058l-.314-.224-.315.224a.052.052 0 0 1-.08-.058l.117-.368-.31-.23a.052.052 0 0 1 .03-.093l.386-.003.122-.366a.052.052 0 0 1 .099 0zM11.959 4.139l.122.366.386.003c.05 0 .07.064.03.094l-.31.23.117.367a.052.052 0 0 1-.08.058l-.314-.224-.315.224a.052.052 0 0 1-.08-.058l.117-.368-.31-.23a.052.052 0 0 1 .03-.093l.386-.003.122-.366a.052.052 0 0 1 .099 0zM11.959 6.055l.122.366.386.003c.05 0 .07.064.03.094l-.31.23.117.367a.052.052 0 0 1-.08.058l-.314-.224-.315.224a.052.052 0 0 1-.08-.058l.117-.368-.31-.23a.052.052 0 0 1 .03-.093l.386-.003.122-.366a.052.052 0 0 1 .099 0zM11.959 7.97l.122.367.386.003c.05 0 .07.064.03.094l-.31.229.117.368a.052.052 0 0 1-.08.058l-.314-.224-.315.224a.052.052 0 0 1-.08-.058l.117-.368-.31-.23a.052.052 0 0 1 .03-.093l.386-.003.122-.366a.052.052 0 0 1 .099 0zM13.446 1.284l.122.366.386.003c.05 0 .07.064.03.094l-.31.229.117.368a.052.052 0 0 1-.08.058l-.314-.225-.314.225a.052.052 0 0 1-.08-.058l.116-.368-.31-.23a.052.052 0 0 1 .03-.093l.386-.003.122-.366a.052.052 0 0 1 .099 0zM13.446 3.2l.122.366.386.003c.05 0 .07.064.03.094l-.31.229.117.368a.052.052 0 0 1-.08.058l-.314-.225-.314.225a.052.052 0 0 1-.08-.058l.116-.368-.31-.23a.052.052 0 0 1 .03-.093l.386-.003.122-.367a.052.052 0 0 1 .099 0zM13.446 5.115l.122.367.386.003c.05 0 .07.064.03.093l-.31.23.117.368a.052.052 0 0 1-.08.058l-.314-.225-.314.225a.052.052 0 0 1-.08-.058l.116-.368-.31-.23a.052.052 0 0 1 .03-.093l.386-.003.122-.367a.052.052 0 0 1 .099 0zM13.446 7.031l.122.367.386.002c.05 0 .07.065.03.094l-.31.23.117.368a.052.052 0 0 1-.08.058l-.314-.225-.314.225a.052.052 0 0 1-.08-.058l.116-.368-.31-.23a.052.052 0 0 1 .03-.094l.386-.002.122-.367a.052.052 0 0 1 .099 0zM13.446 8.947l.122.366.386.003c.05 0 .07.064.03.094l-.31.23.117.368a.052.052 0 0 1-.08.058l-.314-.225-.314.225a.052.052 0 0 1-.08-.058l.116-.368-.31-.23a.052.052 0 0 1 .03-.094l.386-.003.122-.366a.052.052 0 0 1 .099 0z"/>
  </g>
</svg>
