<svg xmlns="http://www.w3.org/2000/svg" viewBox="0 0 32 22">
  <g fill="none">
    <path fill="#F5F5F5" d="M29.603.017H2.397C1.073.017 0 1.107 0 2.452v16.43c0 1.344 1.073 2.434 2.397 2.434h27.206c1.324 0 2.397-1.09 2.397-2.435V2.452C32 1.107 30.927.017 29.603.017z"/>
    <path fill="#FF4B55" d="M19.063 6.002c-2.535-1.717-5.96-1.015-7.648 1.556a2.828 2.828 0 0 0 .764 3.885 2.73 2.73 0 0 0 3.823-.778 2.734 2.734 0 0 1 3.824-.778c1.268.859 1.61 2.603.763 3.886 1.69-2.575 1.007-6.054-1.526-7.771"/>
    <path fill="#41479B" d="M11.415 7.558a2.828 2.828 0 0 0 .764 3.885 2.73 2.73 0 0 0 3.823-.778 2.734 2.734 0 0 1 3.824-.778c1.268.859 1.61 2.603.763 3.886a5.455 5.455 0 0 1-7.646 1.556c-2.533-1.717-3.218-5.196-1.528-7.771"/>
    <path fill="#464655" d="M21.87 3.885l1.002 1.53a.283.283 0 0 1-.076.388l-.254.173a.273.273 0 0 1-.383-.077l-1.004-1.53a.283.283 0 0 1 .077-.389l.255-.173a.273.273 0 0 1 .383.078zM23.416 6.244l1.006 1.53c.085.129.05.304-.078.39l-.255.17a.273.273 0 0 1-.381-.077l-1.005-1.528a.283.283 0 0 1 .076-.389l.255-.173a.273.273 0 0 1 .382.077zM22.943 3.158l2.552 3.89a.283.283 0 0 1-.077.388l-.256.174a.273.273 0 0 1-.383-.078l-2.552-3.89a.283.283 0 0 1 .076-.389l.258-.173a.274.274 0 0 1 .382.078zM24.013 2.431l1.005 1.533c.084.13.05.304-.078.39l-.255.17a.273.273 0 0 1-.382-.077l-1.005-1.532a.283.283 0 0 1 .076-.388l.257-.174a.273.273 0 0 1 .382.078zM25.56 4.796l1.003 1.53a.283.283 0 0 1-.076.388l-.255.173a.273.273 0 0 1-.383-.078l-1.002-1.53a.283.283 0 0 1 .076-.388l.255-.173a.273.273 0 0 1 .382.078zM8.295 13.078l2.552 3.886a.283.283 0 0 1-.077.389l-.255.173a.273.273 0 0 1-.383-.077l-2.551-3.886a.283.283 0 0 1 .076-.389l.255-.173a.273.273 0 0 1 .383.077zM7.224 13.805l1.002 1.526a.283.283 0 0 1-.076.389l-.255.173a.273.273 0 0 1-.382-.078L6.51 14.29a.283.283 0 0 1 .076-.388l.255-.174a.273.273 0 0 1 .383.078zM8.772 16.165l1.003 1.53a.283.283 0 0 1-.077.389l-.254.173a.273.273 0 0 1-.383-.078l-1.004-1.53a.283.283 0 0 1 .077-.388l.255-.173a.273.273 0 0 1 .383.077zM6.153 14.532l2.55 3.886a.283.283 0 0 1-.077.389l-.254.173a.273.273 0 0 1-.383-.078l-2.552-3.886a.283.283 0 0 1 .077-.388l.256-.174a.273.273 0 0 1 .383.078zM7.58 7.774l2.552-3.89a.273.273 0 0 1 .383-.077l.255.173c.127.086.161.26.077.389L8.294 8.256a.273.273 0 0 1-.381.078l-.255-.171a.283.283 0 0 1-.077-.389zM6.51 7.048l2.55-3.89a.273.273 0 0 1 .384-.078l.254.174c.127.085.161.26.077.388l-2.551 3.89a.273.273 0 0 1-.383.078l-.255-.173a.283.283 0 0 1-.077-.389zM5.437 6.325l2.552-3.894a.273.273 0 0 1 .383-.077l.254.173c.127.086.161.26.077.388l-2.55 3.894a.273.273 0 0 1-.383.078l-.256-.173a.283.283 0 0 1-.077-.389zM21.156 16.964l1.003-1.526a.273.273 0 0 1 .383-.077l.254.173c.126.086.16.26.076.388L21.87 17.45a.273.273 0 0 1-.383.077l-.255-.173a.283.283 0 0 1-.076-.389zM22.703 14.612l1.004-1.533A.273.273 0 0 1 24.09 13l.256.173c.127.086.161.26.076.389l-1.006 1.531a.273.273 0 0 1-.382.078L22.78 15a.283.283 0 0 1-.077-.389zM22.227 17.695l1.003-1.53a.273.273 0 0 1 .383-.078l.256.174c.127.086.161.26.077.389l-1.003 1.53a.273.273 0 0 1-.383.078l-.257-.174a.283.283 0 0 1-.076-.389zM23.775 15.331l1.004-1.526a.273.273 0 0 1 .383-.078l.256.174c.127.086.161.26.076.389l-1.004 1.526a.273.273 0 0 1-.382.078l-.256-.174a.283.283 0 0 1-.077-.389zM23.298 18.418l1.005-1.528a.273.273 0 0 1 .381-.078l.256.172c.127.085.162.26.077.39l-1.004 1.528a.273.273 0 0 1-.382.078l-.256-.173a.283.283 0 0 1-.077-.39zM24.847 16.062l1.002-1.53a.273.273 0 0 1 .383-.077l.255.172c.126.086.16.26.076.389l-1.003 1.527a.273.273 0 0 1-.382.078l-.254-.17a.283.283 0 0 1-.077-.39z"/>
  </g>
</svg>
