<svg xmlns="http://www.w3.org/2000/svg" viewBox="0 0 36 36">
    <path fill-rule="evenodd" d="M27.677 10.013v-.007s.096.14.242.05l2.238-1.395c.118-.074.09-.182.066-.24a16.697 16.697 0 0 0-3.788-3.939c.308-.583.609-1.17.912-1.756.107-.208.106-.208-.106-.319l-1.451-.75c-.234-.121-.235-.121-.352.106l-.8 1.549a16.722 16.722 0 0 0-1.173-.6c.279-.53.55-1.064.83-1.594.073-.136.066-.207-.083-.281a58.222 58.222 0 0 1-1.536-.794c-.14-.076-.21-.054-.282.087-.302.6-.614 1.195-.923 1.791-.005.011-.009.017-.014.024a16.503 16.503 0 0 0-4.896-.744C7.43 1.2 0 8.63 0 17.763c0 5.389 2.589 10.183 6.586 13.209-.303.574-.599 1.151-.897 1.728-.107.207-.106.208.106.318l1.452.75c.233.12.234.12.35-.106l.781-1.51c.381.217.77.421 1.168.608-.27.515-.533 1.033-.806 1.548-.072.136-.065.206.084.28.516.257 1.028.522 1.536.795.14.075.21.054.281-.089.296-.586.6-1.167.903-1.75a16.49 16.49 0 0 0 5.017.78c5.649 0 10.642-2.844 13.633-7.173a.087.087 0 0 0-.018-.117L27.93 25.46h-.005c-.088-.059-.152-.051-.224.027l-.006.001c-2.452 3.522-6.526 5.834-11.134 5.834-7.476 0-13.558-6.082-13.558-13.558 0-7.477 6.082-13.56 13.558-13.56 4.596 0 8.662 2.302 11.116 5.81zm-7.173 6.366c-.476.653-1.204.85-2.054.585a9.56 9.56 0 0 1-1.67-.72 26.22 26.22 0 0 0-1-.515c-.143-.069-.171-.136-.094-.279.254-.47.494-.947.739-1.421.245-.474.494-.946.733-1.423.068-.135.133-.16.269-.088.611.325 1.234.63 1.84.964.433.238.863.493 1.198.87.539.604.499 1.398.04 2.027zm-4.73 6.473c-.46-.097-.886-.284-1.303-.488-.502-.246-1.005-.492-1.481-.792-.196-.123-.248-.24-.186-.467.065-.237.197-.444.304-.662.186-.373.382-.742.574-1.113l-.005-.003c.277-.534.555-1.069.829-1.606.042-.083.088-.094.162-.054.629.337 1.276.64 1.893.998.297.172.601.334.873.545.46.357.831.783.889 1.388.12 1.294-1.078 2.568-2.549 2.254zm7.25-4.256c.89-.593 1.388-1.432 1.48-2.499a3.091 3.091 0 0 0-.188-1.386c-.358-.931-.991-1.636-1.81-2.185-.123-.084-.15-.16-.076-.298.33-.621.649-1.247.972-1.873.107-.207.107-.208-.106-.318l-1.45-.75c-.235-.121-.235-.121-.352.106l-.911 1.761c-.095.184-.096.184-.285.086-.268-.138-.532-.283-.804-.412-.136-.065-.161-.129-.088-.266.32-.602.626-1.212.945-1.815.072-.136.066-.207-.084-.28a56.02 56.02 0 0 1-1.535-.795c-.141-.075-.21-.054-.282.088-.302.6-.614 1.194-.923 1.79-.105.202-.105.202-.307.098-1.188-.614-2.377-1.228-3.563-1.845-.124-.065-.195-.06-.263.073-.262.52-.53 1.036-.802 1.55-.063.121-.042.188.082.249.276.135.546.277.803.445.311.204.421.53.274.865-.094.213-.191.425-.297.631-1.22 2.363-2.443 4.725-3.665 7.087-.114.221-.23.44-.364.65-.223.351-.5.436-.884.278-.27-.11-.527-.245-.785-.377-.181-.092-.197-.089-.291.092-.257.493-.512.986-.766 1.48-.103.2-.102.204.1.309l3.55 1.837c.185.096.185.096.088.285l-1.018 1.974 1.887.976.992-1.897c.153-.291.105-.274.402-.123.24.123.475.255.719.369.143.066.171.13.093.276-.319.597-.625 1.2-.935 1.801-.032.061-.058.124-.087.186l1.888.977c.363-.7.729-1.397 1.085-2.1.074-.147.148-.165.299-.11.934.34 1.897.494 2.88.29 1.433-.297 2.458-1.099 2.964-2.505.259-.717.267-1.44.052-2.163-.169-.567-.486-1.054-.894-1.48-.184-.192-.374-.378-.561-.567.235-.013.458.015.682.018.77.011 1.494-.153 2.14-.583z"/>
</svg>