<svg xmlns="http://www.w3.org/2000/svg" viewBox="0 0 42.92 42.92">
    <g id="Слой_2" data-name="Слой 2">
        <g id="Price">
            <path fill="#FF9400" d="M23.22,29.77a7.68,7.68,0,0,0,3.14-1.63A2.42,2.42,0,0,0,27,25.5a3.23,3.23,0,0,0-.61-1.23,2.58,2.58,0,0,0-1.05-.75,6.55,6.55,0,0,0-1.67-.42c-.66-.1-1.48-.2-2.45-.31-.78-.09-1.53-.19-2.24-.32a8.79,8.79,0,0,1-2-.56,4.8,4.8,0,0,1-1.57-1.1,4.47,4.47,0,0,1-1-1.9,4.71,4.71,0,0,1,.65-4.17A7.49,7.49,0,0,1,19.43,12a13.56,13.56,0,0,1,3.25-.59,10.72,10.72,0,0,1,1.92.08l.06,2.25A13.91,13.91,0,0,0,23,13.56a10.13,10.13,0,0,0-3.12.5,7.59,7.59,0,0,0-1.45.6,4.16,4.16,0,0,0-1.1.86,2.87,2.87,0,0,0-.61,1.12,2.42,2.42,0,0,0,0,1.38,3,3,0,0,0,.66,1.22,3.07,3.07,0,0,0,1.13.71,7.14,7.14,0,0,0,1.59.38c.61.09,1.31.17,2.09.26s1.58.17,2.33.28a7.81,7.81,0,0,1,2.06.58,5.3,5.3,0,0,1,1.66,1.16,5,5,0,0,1,1.11,2.09,4.51,4.51,0,0,1-.79,4.37,9.44,9.44,0,0,1-4.81,2.79,13.47,13.47,0,0,1-3.87.66A14.24,14.24,0,0,1,18,32.39V30.08a4.13,4.13,0,0,0,.54.1,8.92,8.92,0,0,0,1.08.08,11.12,11.12,0,0,0,1.56-.07A13.43,13.43,0,0,0,23.22,29.77Z"/>
            <circle cx="21.46" cy="21.46" r="16.47" fill="none" stroke="#FF9400" stroke-width="2"/>
            <path d="M26.47 29.84L27.28 32.65M16.03 10.52L17.02 13.96M21.96 31.14L22.83 34.16M20.49 9.05L21.53 12.66" fill="none" stroke="#FF9400" stroke-width="2"/>
            <circle cx="21.46" cy="21.46" r="20.46" fill="none" stroke="#FF9400" stroke-width="2"/>
        </g>
    </g>
</svg>