<svg xmlns="http://www.w3.org/2000/svg" viewBox="0 0 35.53 46.05">
    <g id="Слой_2" data-name="Слой 2">
        <g id="Security">
            <path d="M16.93 12.44L20.98 44.12M1 4.76L5.12 36.95M21.1 45.05L5.12 36.95M34.53 33.18L21.1 45.05M31 5.54L34.53 33.18M6.88 4.01L1 4.76M7.46 8.55L6.88 4.01M30.41 1L24.53 1.75M31 5.54L30.41 1M25.11 6.29L24.53 1.75M13.35 7.8L7.46 8.55M25.11 6.29L19.23 7.04M13.35 7.8L12.77 3.26M19.23 7.04L18.65 2.5M12.77 3.26L18.65 2.5M2.22 14.32L31.64 10.55M10.16 17.93L12.43 35.67M24.87 16.05L27.12 33.66" fill="none" stroke="#FF9400" stroke-linecap="round" stroke-linejoin="round" stroke-width="2"/>
        </g>
    </g>
</svg>