<svg xmlns="http://www.w3.org/2000/svg" viewBox="0 0 38.31 49.55">
    <g id="Слой_2" data-name="Слой 2">
        <g id="Simple">
            <path d="M10.71 48.55L1 35.14M5.95 31.59L1 35.14M15.4 44.9L10.71 48.55M5.95 31.59L15.4 44.9M14.45 43.56L32.46 32.1M6.49 32.35L9.38 30.21M12.47 24.28L9.38 30.21M18.43 23.14L34.1 11.24M18.67 15.57c.15-2.47-2.39-3.29-3.28 0M12.47 24.28L15.39 15.57M36.3 29.29L31.91 32.53M34.83 25.64L31.52 27.76M33.55 21.68L30.14 23.84M32.02 17.56L29.2 19.82M37 11.73a2.54 2.54 0 0 1-.59 2.74M34.1 11.24a2 2 0 0 1 2.86.49M31.46 18A2 2 0 0 1 34 19.14M33.55 21.68s1.16-1.44.47-2.54M34.83 25.64s1.55-1.13 1-2.47M33.55 21.68a2.33 2.33 0 0 1 2.23 1.49M37.13 26.53a2.26 2.26 0 0 1-.83 2.76M34.83 25.64a1.68 1.68 0 0 1 2.3.89M18.43 23.14L18.67 15.57M32.02 17.56L36.37 14.47M23.91 1L23.91 8.94M20.98 10.13L15.6 4.75M26.99 10.13L32.36 4.75" fill="none" stroke="#FF9400" stroke-linecap="round" stroke-linejoin="round" stroke-width="2"/>
        </g>
    </g>
</svg>