<svg xmlns="http://www.w3.org/2000/svg" viewBox="0 0 33 36">
    <g fill-rule="nonzero">
        <path d="M10.509 0C7.204 0 4.517 2.691 4.517 6s2.687 6 5.992 6c3.304 0 5.991-2.691 5.991-6 0-3.31-2.687-6-5.991-6zm0 9a3 3 0 0 1 0-6 3 3 0 0 1 0 6zM12.006 13.5H9.011c-4.957 0-8.988 4.037-8.988 9a1.498 1.498 0 1 0 2.996 0c0-3.309 2.687-6 5.992-6h2.995a1.5 1.5 0 0 0 0-3zM22.491 12c-3.304 0-5.991 2.691-5.991 6s2.687 6 5.991 6c3.305 0 5.992-2.691 5.992-6s-2.687-6-5.992-6zm0 9a3 3 0 0 1 0-6 3 3 0 0 1 0 6zM23.99 25.5h-2.996c-4.957 0-8.988 4.037-8.988 9a1.498 1.498 0 1 0 2.996 0c0-3.309 2.687-6 5.992-6h2.995c3.305 0 5.992 2.691 5.992 6a1.498 1.498 0 1 0 2.995 0c0-4.963-4.03-9-8.987-9z"/>
    </g>
</svg>
