<svg xmlns="http://www.w3.org/2000/svg" viewBox="0 0 49.09 31.1">
    <g id="Слой_2" data-name="Слой 2">
        <g id="Volumes">
            <path d="M12.78 22.5L2.48 22.5 1 30.1 14.26 30.1 12.78 22.5zM29.6 22.5L19.31 22.5 17.82 30.1 31.09 30.1 29.6 22.5zM46.61 22.5L36.32 22.5 34.83 30.1 48.09 30.1 46.61 22.5zM21.19 11.75L10.9 11.75 9.41 19.35 22.67 19.35 21.19 11.75zM38.01 11.75L27.72 11.75 26.24 19.35 39.5 19.35 38.01 11.75zM29.6 1L19.31 1 17.82 8.6 31.09 8.6 29.6 1z" fill="none" stroke="#FF9400" stroke-linecap="round" stroke-linejoin="round" stroke-width="2"/>
        </g>
    </g>
</svg>