<svg xmlns="http://www.w3.org/2000/svg" viewBox="0 0 60 55">
	<path fill="#ff9400" d="M60,38.5c-0.3-3.3-1.8-6.3-4.2-8.5l-1.5-18.5l0,0c0-0.1,0-0.3-0.1-0.4l0,0L54,10.9l-0.1-0.1l0,0l0,0	c-0.1-0.1-0.3-0.1-0.4-0.3c0,0,0,0-0.1,0c-0.1,0-0.3,0-0.4,0l-14.1,1.3c-1.2-6-6.6-10.3-12.6-9.8c-6.1,0.6-10.7,5.7-10.9,11.8	L1.2,15.1c-0.1,0-0.3,0-0.4,0.1c0,0,0,0-0.1,0c-0.1,0.1-0.3,0.1-0.4,0.3l0,0l-0.1,0.1c0,0,0,0.1-0.1,0.1c0,0,0,0,0,0.1s0,0.3,0,0.4	l0,0l3,35.5c0,0.4,0.1,0.7,0.5,1c0.3,0.3,0.5,0.3,0.8,0.3h0.1l36.6-3.2c2,1.5,4.5,2.4,7.1,2.4c0.4,0,0.7,0,1.1,0	c3.3-0.3,6.2-1.8,8.3-4.5C59.3,45,60.2,41.8,60,38.5z M52.8,28.2c-1.1-0.4-2-0.8-3.3-1L52,19L52.8,28.2z M26.2,4.3	c0.3,0,0.5,0,0.8,0c4.2,0,8,3.1,9,7.2l-18,1.5C18,8.6,21.6,4.7,26.2,4.3z M50.9,13.1L46.8,27c0,0,0,0-0.1,0c-2,0.1-4.1,0.8-5.7,2.1	l-7.9,0.7L33,28.6c0-0.8-0.7-1.4-1.5-1.3l-6.9,0.6c-0.8,0-1.4,0.7-1.2,1.5l0.1,1.3l-13.3,1.1L3.1,17.3L50.9,13.1z M30.7,33.3	l-4.2,0.4l-0.3-3.2l4.2-0.4L30.7,33.3z M5.2,50L3,23.1l5.3,10.7c0.3,0.4,0.7,0.8,1.2,0.8h0.1l14.1-1.3l0.1,2c0,0.4,0.1,0.7,0.5,1	c0.3,0.3,0.5,0.3,0.8,0.3h0.1l6.9-0.6c0.8,0,1.4-0.7,1.2-1.5l-0.1-2l4.6-0.4c-1.8,2.5-2.6,5.4-2.3,8.5c0.1,2.5,1.1,4.7,2.6,6.7	L5.2,50z M55.1,45.8c-1.6,2-3.9,3.2-6.5,3.5c-2.6,0.3-5-0.6-6.9-2.2c-1.9-1.7-3.1-4-3.4-6.7c-0.3-2.6,0.5-5.2,2.2-7.1	c1.6-2,3.9-3.2,6.5-3.5c0.3,0,0.5,0,0.8,0c2.3,0,4.3,0.8,6.1,2.4c1.9,1.7,3.1,4,3.4,6.7C57.5,41.3,56.7,43.9,55.1,45.8z M51.1,33.2	c-0.7-0.3-1.5,0.1-1.8,1l-2.2,7.1l-1.8-2.5c-0.4-0.7-1.2-0.8-1.9-0.3c-0.7,0.4-0.8,1.3-0.3,2l3.4,4.9c0,0,0,0,0.1,0.1	c0.1,0.1,0.1,0.1,0.3,0.3l0.1,0.1h0.1c0.1,0,0.3,0,0.4,0c0,0,0,0,0.1,0c0.1,0,0.3,0,0.3,0c0.1,0,0.1-0.1,0.3-0.1c0,0,0.1,0,0.1-0.1	l0,0c0.1-0.1,0.3-0.3,0.3-0.4c0,0,0-0.1,0.1-0.1l0.1-0.1l3.1-9.9C52.2,34.1,51.8,33.3,51.1,33.2z"/>
</svg>