<?xml version="1.0" standalone="no"?>
<!DOCTYPE svg PUBLIC "-//W3C//DTD SVG 20010904//EN"
 "http://www.w3.org/TR/2001/REC-SVG-20010904/DTD/svg10.dtd">
<svg version="1.0" xmlns="http://www.w3.org/2000/svg"
 width="200.000000pt" height="200.000000pt" viewBox="0 0 200.000000 200.000000"
 preserveAspectRatio="xMidYMid meet">
<metadata>
Created by potrace 1.11, written by Peter Selinger 2001-2013
</metadata>
<g transform="translate(0.000000,200.000000) scale(0.100000,-0.100000)"
fill="#000000" stroke="none">
<path d="M1410 1980 c-8 -5 -11 -10 -7 -10 7 0 -20 -53 -39 -79 -2 -2 -25 2
-51 8 -26 6 -59 14 -73 17 -99 22 -318 6 -434 -32 -62 -20 -190 -80 -231 -108
-49 -34 -148 -119 -180 -155 -16 -19 -34 -39 -40 -45 -24 -26 -75 -106 -103
-161 -64 -126 -102 -284 -102 -423 0 -85 31 -250 60 -316 11 -26 20 -50 21
-54 3 -18 46 -93 89 -157 44 -65 121 -148 179 -193 l25 -19 -27 -46 c-15 -25
-27 -50 -27 -55 0 -10 99 -66 105 -60 1 2 12 22 24 46 19 36 25 42 44 36 45
-14 48 -23 22 -69 -28 -47 -28 -49 42 -84 l41 -21 26 46 c14 26 26 50 26 54 0
5 16 4 36 -2 166 -45 357 -44 513 4 92 28 197 78 271 130 91 63 229 204 230
235 0 6 -28 32 -62 56 -51 37 -65 43 -80 33 -10 -6 -18 -15 -18 -21 0 -6 -9
-18 -19 -27 -10 -9 -23 -22 -27 -30 -5 -8 -34 -34 -64 -58 -30 -25 -57 -47
-60 -50 -3 -3 -16 -11 -30 -18 -14 -7 -44 -24 -68 -37 -35 -20 -90 -40 -137
-51 -5 -1 -29 -7 -52 -13 -49 -14 -177 -17 -253 -6 -65 8 -169 40 -225 68
-118 58 -268 192 -316 280 -88 162 -111 245 -111 397 0 136 11 195 53 294 119
281 371 453 687 471 22 1 158 -13 192 -19 40 -8 76 -20 88 -29 6 -5 12 -6 12
-2 0 12 131 -64 195 -113 33 -25 82 -72 110 -104 27 -32 54 -58 60 -58 21 0
125 74 125 89 0 26 -102 142 -174 199 -27 21 -28 24 -16 50 7 15 18 41 26 58
l13 30 -54 27 -54 26 -21 -44 c-23 -47 -42 -55 -73 -32 -16 11 -15 15 7 59
l24 47 -45 26 c-51 28 -52 28 -73 15z"/>
<path d="M1191 1557 c-6 -8 -8 -17 -4 -20 3 -4 1 -7 -5 -7 -7 0 -12 -6 -12
-14 0 -7 -7 -19 -15 -26 -8 -7 -13 -16 -10 -20 16 -26 -26 -14 -121 35 -59 30
-108 55 -110 55 -3 0 -54 -98 -54 -104 0 -2 16 -13 35 -25 19 -11 35 -28 35
-37 0 -17 -109 -235 -123 -245 -5 -3 -8 -9 -8 -13 1 -3 -13 -34 -31 -69 -18
-34 -44 -84 -58 -111 -33 -65 -50 -75 -94 -54 l-35 17 -26 -46 c-14 -26 -24
-52 -22 -58 3 -6 50 -34 106 -63 55 -30 101 -55 101 -57 0 -10 -46 -101 -54
-106 -10 -8 24 -32 75 -53 l36 -15 27 60 c16 32 31 57 36 54 4 -2 19 -9 34
-14 l26 -11 -32 -60 c-17 -33 -29 -62 -27 -63 12 -10 102 -57 104 -55 1 2 17
30 35 64 l33 61 42 -13 c79 -23 189 -2 244 49 32 30 69 115 66 152 -2 17 -3
37 -4 46 -1 9 -17 40 -36 68 -19 28 -35 53 -35 55 0 3 17 5 38 4 37 0 94 20
122 44 42 35 62 79 63 138 0 32 -5 65 -11 73 -7 7 -9 17 -5 20 3 4 1 7 -5 7
-7 0 -12 5 -12 10 0 6 -17 27 -37 47 -21 20 -38 41 -38 47 0 6 12 36 27 66
l27 54 -37 21 c-67 38 -67 38 -98 -18 -33 -63 -39 -67 -70 -53 -30 14 -30 19
1 71 13 23 21 45 18 49 -3 3 0 6 7 6 19 0 5 12 -51 44 -38 22 -48 24 -58 13z
m18 -303 c36 -19 79 -47 94 -62 25 -24 28 -32 23 -70 -7 -57 -41 -89 -94 -86
-20 1 -39 3 -42 4 -3 2 -9 4 -15 5 -5 0 -38 16 -72 33 -63 32 -71 45 -48 82
25 40 54 104 49 111 -4 7 11 17 30 18 4 1 38 -15 75 -35z m-156 -289 c36 -19
76 -43 87 -52 52 -43 61 -106 23 -157 -40 -54 -108 -60 -198 -17 -107 52 -105
42 -46 159 28 56 55 102 59 102 4 0 38 -16 75 -35z"/>
</g>
</svg>
